<svg width="206" height="32" viewBox="0 0 206 32" fill="none" xmlns="http://www.w3.org/2000/svg">
<g clip-path="url(#clip0_1901_962)">
<path d="M29.2843 6.21777C30.0342 7.20046 30.6691 8.26807 31.1762 9.39916L16.7947 20.1433L10.7841 16.3248V11.7312L16.7947 15.5495L29.2843 6.21777Z" fill="#21A038"/>
<path d="M4.64983 15.9994C4.64983 15.7935 4.65479 15.5887 4.66471 15.385L1.02222 15.2041C1.00982 15.4681 1.00238 15.7344 1.00238 16.0032C1.00083 18.1039 1.40854 20.1842 2.20211 22.1247C2.99568 24.0652 4.15949 25.8278 5.62679 27.3116L8.2105 24.6943C7.08103 23.5542 6.18502 22.1992 5.57395 20.7071C4.96289 19.2149 4.64883 17.615 4.64983 15.9994Z" fill="url(#paint0_linear_1901_962)"/>
<path d="M16.7912 3.69502C16.9945 3.69502 17.1966 3.70255 17.3975 3.7126L17.5797 0.0198347C17.3185 0.00727002 17.0556 0.000988429 16.7912 0.000988429C14.7175 -0.00157447 12.6638 0.411016 10.7479 1.21507C8.83198 2.01912 7.09168 3.1988 5.62689 4.68638L8.2106 7.30485C9.33558 6.1598 10.6728 5.25141 12.1453 4.6319C13.6179 4.0124 15.1967 3.694 16.7912 3.69502Z" fill="url(#paint1_linear_1901_962)"/>
<path d="M16.7911 28.3049C16.5879 28.3049 16.3857 28.3049 16.1837 28.2886L16.0014 31.9801C16.2634 31.9935 16.5266 32.0001 16.7911 32.0001C18.8639 32.0023 20.9167 31.5894 22.8317 30.7852C24.7464 29.9808 26.4856 28.801 27.9492 27.3135L25.3704 24.6963C24.2453 25.8407 22.9083 26.7487 21.436 27.3679C19.9637 27.9872 18.3853 28.3056 16.7911 28.3049Z" fill="url(#paint2_linear_1901_962)"/>
<path d="M23.6348 5.84262L26.7045 3.54956C23.8988 1.24702 20.3964 -0.00639158 16.7862 2.45105e-05V3.6953C19.2308 3.69223 21.6189 4.44097 23.6348 5.84262Z" fill="url(#paint3_linear_1901_962)"/>
<path d="M32.5787 15.9991C32.5807 15.0378 32.4978 14.0782 32.3308 13.1318L28.9325 15.6699C28.9325 15.7792 28.9325 15.8886 28.9325 15.9991C28.9334 17.7182 28.5778 19.4185 27.8889 20.9895C27.1999 22.5606 26.1928 23.9673 24.933 25.1185L27.384 27.864C29.0219 26.3655 30.3307 24.535 31.2256 22.491C32.1205 20.4471 32.5814 18.2353 32.5787 15.9991Z" fill="#21A038"/>
<path d="M16.7913 28.3044C15.0947 28.3051 13.417 27.9445 11.8667 27.2463C10.3164 26.548 8.92807 25.5276 7.79162 24.251L5.08392 26.7337C6.56232 28.394 8.36851 29.7205 10.3854 30.6277C12.4022 31.5349 14.5847 32.0022 16.7913 31.9996V28.3044Z" fill="url(#paint4_linear_1901_962)"/>
<path d="M8.64939 6.88015L6.19958 4.13477C4.56128 5.63293 3.25201 7.46338 2.35668 9.50738C1.46134 11.5514 0.999939 13.7633 1.00239 15.9996H4.64984C4.64909 14.2804 5.00474 12.5803 5.69373 11.0093C6.38272 9.43831 7.38968 8.03155 8.64939 6.88015Z" fill="url(#paint5_linear_1901_962)"/>
<mask id="mask0_1901_962" style="mask-type:luminance" maskUnits="userSpaceOnUse" x="41" y="5" width="165" height="22">
<path d="M205.843 5.56738H41.0798V26.7194H205.843V5.56738Z" fill="white"/>
</mask>
<g mask="url(#mask0_1901_962)">
<path d="M92.1134 9.15006L96.6307 5.81534H81.5119V25.8541H96.6307V22.5194H85.8259V17.3865H95.043V14.0517H85.8259V9.15006H92.1134Z" fill="#21A038"/>
<path d="M71.3389 13.6216H66.0899V9.14858H74.4671L78.9817 5.80371H61.7785V25.8424H70.7837C75.8323 25.8424 78.7299 23.5498 78.7299 19.5511C78.7299 15.7258 76.1055 13.6216 71.3389 13.6216ZM70.5896 22.5067H66.0899V16.9543H70.5896C73.3202 16.9543 74.6005 17.8848 74.6005 19.7304C74.6005 21.5763 73.2383 22.5067 70.5896 22.5067Z" fill="#21A038"/>
<path d="M107.744 5.8125H99.5148V25.8512H103.828V20.1746H107.744C112.995 20.1746 116.243 17.4063 116.243 12.9829C116.243 8.55958 112.995 5.8125 107.744 5.8125ZM107.653 16.8374H103.828V9.14977H107.653C110.415 9.14977 111.939 10.5157 111.939 12.9951C111.939 15.4745 110.415 16.8374 107.653 16.8374Z" fill="#21A038"/>
<path d="M55.3054 21.1224C54.191 21.727 52.9426 22.04 51.6756 22.0326C47.8833 22.0326 45.132 19.3198 45.132 15.5843C45.132 11.8486 47.8833 9.12997 51.6756 9.12997C53.0433 9.10669 54.3823 9.52221 55.4977 10.3159L58.515 8.08934L58.3109 7.94406C56.5507 6.3935 54.1989 5.57227 51.507 5.57227C48.5873 5.57227 45.9397 6.55656 44.0494 8.34728C43.0936 9.26928 42.3377 10.3788 41.8287 11.6066C41.3198 12.8344 41.0686 14.1541 41.0911 15.4835C41.0709 16.8263 41.3209 18.1594 41.8261 19.4033C42.3313 20.6472 43.0814 21.7764 44.0316 22.7233C45.9308 24.5853 48.5724 25.611 51.4715 25.611C54.5007 25.611 57.1483 24.5526 58.941 22.6256L56.2401 20.6094L55.3054 21.1224Z" fill="#21A038"/>
<path d="M133.346 13.6216H128.1V9.14858H139.375V5.80371H123.786V25.8424H132.779C137.828 25.8424 140.725 23.5498 140.725 19.5511C140.737 15.7258 138.113 13.6216 133.346 13.6216ZM132.597 22.5067H128.1V16.9543H132.597C135.328 16.9543 136.608 17.8848 136.608 19.7304C136.608 21.5763 135.258 22.5067 132.597 22.5067Z" fill="#21A038"/>
<path d="M189.766 25.8143H185.394V5.77557H189.766V14.192H192.146L198.575 5.77557H203.531L195.908 15.3083L204.76 25.8143H198.956L192.45 17.9333H189.766V25.8143Z" fill="#21A038"/>
<path d="M156.613 22.0068H147.362L145.794 25.8982H141.141L149.817 5.85938H154.47L163.006 25.8982H158.182L156.613 22.0068ZM155.164 18.376L152.015 10.5933L148.847 18.376H155.164Z" fill="#21A038"/>
<path d="M168.894 5.85938V14.2272H177.942V5.85938H182.451V25.8982H177.942V18.0022H168.894V25.8982H164.383V5.85938H168.894Z" fill="#21A038"/>
</g>
</g>
<defs>
<linearGradient id="paint0_linear_1901_962" x1="6.36446" y1="26.8504" x2="2.28364" y2="15.2102" gradientUnits="userSpaceOnUse">
<stop offset="0.14" stop-color="#F1E813"/>
<stop offset="0.3" stop-color="#E6E418"/>
<stop offset="0.58" stop-color="#C9DA26"/>
<stop offset="0.89" stop-color="#A2CC39"/>
</linearGradient>
<linearGradient id="paint1_linear_1901_962" x1="6.66832" y1="5.33973" x2="16.9669" y2="1.46719" gradientUnits="userSpaceOnUse">
<stop offset="0.06" stop-color="#0FA7DF"/>
<stop offset="0.54" stop-color="#0098F8"/>
<stop offset="0.92" stop-color="#0290EA"/>
</linearGradient>
<linearGradient id="paint2_linear_1901_962" x1="15.7608" y1="29.7699" x2="27.3826" y2="27.1792" gradientUnits="userSpaceOnUse">
<stop offset="0.12" stop-color="#A2CC39"/>
<stop offset="0.28" stop-color="#86C239"/>
<stop offset="0.87" stop-color="#219F38"/>
</linearGradient>
<linearGradient id="paint3_linear_1901_962" x1="16.0275" y1="1.23765" x2="25.9735" y2="4.26621" gradientUnits="userSpaceOnUse">
<stop offset="0.06" stop-color="#0290EA"/>
<stop offset="0.79" stop-color="#0C89CA"/>
</linearGradient>
<linearGradient id="paint4_linear_1901_962" x1="5.99889" y1="26.284" x2="16.8349" y2="30.2801" gradientUnits="userSpaceOnUse">
<stop offset="0.13" stop-color="#F1E813"/>
<stop offset="0.3" stop-color="#EAE616"/>
<stop offset="0.53" stop-color="#D8DF1F"/>
<stop offset="0.8" stop-color="#BAD52D"/>
<stop offset="0.98" stop-color="#A2CC39"/>
</linearGradient>
<linearGradient id="paint5_linear_1901_962" x1="2.36119" y1="16.4469" x2="6.79873" y2="5.05654" gradientUnits="userSpaceOnUse">
<stop offset="0.07" stop-color="#A2CC39"/>
<stop offset="0.26" stop-color="#81C45E"/>
<stop offset="0.92" stop-color="#0FA7DF"/>
</linearGradient>
<clipPath id="clip0_1901_962">
<rect width="206" height="32" fill="white"/>
</clipPath>
</defs>
</svg>
