<svg width="346" height="25" viewBox="0 0 346 25" fill="none" xmlns="http://www.w3.org/2000/svg">
<path d="M20.5154 22.5277C19.6417 23.0361 18.3205 23.377 17.6599 23.5475C15.6781 24.0559 13.7632 24.0559 12.8043 24.0559C9.60477 24.0559 8.00349 23.5109 7.20285 23.237C4.80092 22.4181 3.73543 21.4256 3.20269 20.9264C1.6014 19.4347 1.06866 18.0648 0.800763 17.3798C0.00012207 15.3249 0.00012207 13.6506 0.00012207 12.8165C0.00012207 10.0523 0.545045 8.59711 0.819029 7.86953C1.63794 5.6868 2.64254 4.67003 3.14789 4.15859C4.65784 2.63037 6.10082 2.08543 6.82231 1.81144C8.98678 0.992536 10.7799 0.992554 11.6779 0.992554C14.4056 0.992554 15.8242 1.27262 16.5335 1.40962C18.6614 1.82668 19.8974 2.43553 20.5154 2.73691V10.5576C19.0602 10.0857 17.6294 9.86655 16.914 9.75696C14.7678 9.42818 13.2153 9.42819 12.439 9.42819C9.89397 9.42819 8.94721 9.94878 8.47535 10.2106C7.05672 10.993 7.05672 12.0097 7.05672 12.5212C7.05672 14.0494 8.07655 14.643 8.58494 14.9413C10.1132 15.8333 12.0767 15.8333 13.06 15.8333C15.0236 15.8333 16.2961 15.6872 16.9323 15.6142C18.8411 15.395 19.9583 15.1301 20.5154 14.9962V22.5246V22.5277Z" fill="#F26A31"/>
<path d="M34.6254 15.6903C35.7152 15.6903 36.3606 15.5563 36.6803 15.4893C37.6453 15.2884 38.1293 15.0114 38.3729 14.8713C39.1004 14.4543 39.3927 14.0524 39.5358 13.8515C39.9711 13.2518 39.9711 12.7191 39.9711 12.4512C39.9711 11.6505 39.6789 11.2517 39.5358 11.0508C39.1004 10.4511 38.6134 10.1953 38.3729 10.0675C37.6453 9.68695 36.9908 9.55303 36.662 9.48605C35.6787 9.28513 34.9755 9.28512 34.6254 9.28512C33.5721 9.28512 32.9145 9.41908 32.5888 9.48605C31.6055 9.68698 31.1093 9.95182 30.8596 10.0858C30.1138 10.4846 29.8215 10.8742 29.6784 11.0691C29.2431 11.6505 29.2431 12.1833 29.2431 12.4512C29.2431 13.2518 29.5354 13.6506 29.6784 13.8515C30.1138 14.4512 30.613 14.7191 30.8596 14.8531C31.6055 15.2519 32.2478 15.398 32.5705 15.471C33.5355 15.6902 34.2631 15.6903 34.6254 15.6903ZM46.9546 12.926C46.9546 15.6537 46.361 17.0358 46.0627 17.7269C45.1707 19.8 44.093 20.7468 43.5542 21.2186C41.9347 22.6372 40.4186 23.1091 39.6636 23.3466C37.3896 24.0559 35.5478 24.0559 34.6254 24.0559C31.8612 24.0559 30.3451 23.5475 29.5871 23.2918C27.3131 22.5277 26.2476 21.5565 25.7148 21.0725C24.1135 19.6173 23.5199 18.2353 23.2246 17.5442C22.3326 15.4711 22.3326 13.7236 22.3326 12.853C22.3326 10.0888 22.9141 8.62148 23.2063 7.88782C24.08 5.68681 25.1577 4.67003 25.6966 4.15859C27.3161 2.63037 28.8321 2.08543 29.5871 1.81144C31.8612 0.992536 33.703 0.992554 34.6254 0.992554C37.4261 0.992554 38.9421 1.53746 39.7002 1.81144C41.9742 2.63035 43.0397 3.65932 43.5725 4.17684C45.1737 5.72333 45.7674 7.19068 46.0627 7.92435C46.9546 10.1253 46.9546 11.9915 46.9546 12.926Z" fill="#6569B0"/>
<path d="M68.4898 16.0529C70.6725 16.0529 71.6193 15.4836 72.0912 15.1975C73.5098 14.3421 73.5098 13.1792 73.5098 12.5977C73.5098 10.9599 72.5874 10.4028 72.1277 10.1258C70.7456 9.2886 69.2417 9.2886 68.4898 9.2886C66.2705 9.2886 65.339 9.80915 64.8702 10.071C63.4698 10.8533 63.4698 12.0163 63.4698 12.5977C63.4698 14.2721 64.4287 14.8657 64.9067 15.161C66.3436 16.0529 67.7744 16.0529 68.4898 16.0529ZM79.9849 12.4151C79.9849 15.1793 79.4644 16.6344 79.2026 17.362C78.4202 19.5447 77.4399 20.5615 76.9468 21.0729C75.4733 22.6012 74.0547 23.1461 73.3454 23.42C71.2174 24.239 69.4 24.239 68.4898 24.239C64.1974 24.239 62.3921 22.9299 61.488 22.2754C58.7786 20.3119 58.1241 17.8856 57.7953 16.674H56.4863V23.8767H48.7751V1.36133H56.4863V8.23526H57.8684C58.3767 6.63398 58.9826 5.73899 59.287 5.28844C60.1972 3.94287 61.0801 3.3127 61.5245 2.9961C62.8518 2.04933 64.0025 1.69925 64.581 1.52268C66.3101 0.996027 67.7622 0.996033 68.4898 0.996033C73.9086 0.996033 75.933 2.98391 76.9468 3.97939C79.9849 6.96277 79.9849 10.6007 79.9849 12.4181V12.4151Z" fill="#00C2F3"/>
<path d="M81.4033 17.2553C83.6226 17.7637 85.0899 17.8733 85.8236 17.9281C88.0246 18.0925 89.4798 18.0925 90.2073 18.0925C91.699 18.0925 92.317 18.0194 92.6275 17.9829C93.556 17.8733 93.9061 17.7272 94.0827 17.6541C94.6093 17.4349 94.7433 17.2431 94.8103 17.1457C95.0112 16.8535 95.0112 16.613 95.0112 16.4912C95.0112 16.272 94.9259 16.1046 94.8833 16.0193C94.7555 15.7636 94.5028 15.6205 94.3749 15.5475C93.9944 15.3283 93.5317 15.2309 93.3033 15.1852C92.6123 15.0391 91.8847 15.0391 91.5225 15.0391H85.0473V10.6736H91.5955C92.177 10.6736 92.5301 10.6371 92.7036 10.6188C93.2303 10.564 93.4982 10.4788 93.6321 10.4362C94.0309 10.3083 94.1892 10.1256 94.2684 10.0374C94.5058 9.76338 94.5058 9.47419 94.5058 9.32807C94.5058 8.8562 94.3475 8.66137 94.2684 8.56395C94.0309 8.2717 93.6565 8.15296 93.4677 8.09208C92.9045 7.90942 92.2622 7.86072 91.9395 7.83637C90.9745 7.76331 90.0064 7.76331 89.5193 7.76331C88.7187 7.76331 88.0155 7.81202 87.6654 7.83637C86.6121 7.90943 85.8723 8.00684 85.5009 8.05555C84.3928 8.20167 83.6774 8.33562 83.3182 8.4026C82.2466 8.60352 81.6864 8.77095 81.4094 8.85619V2.67331C83.1568 2.05533 84.5968 1.70219 85.3182 1.52867C87.4827 1.00201 89.4706 1.00201 90.4661 1.00201C92.6854 1.00201 93.9944 1.19684 94.6489 1.29425C96.6125 1.5865 97.6079 2.08273 98.1042 2.33236C99.5958 3.0782 100.177 3.90316 100.47 4.31414C101.343 5.55011 101.343 6.83479 101.343 7.47713C101.343 9.44068 100.762 10.2292 100.47 10.6249C99.5958 11.8061 98.6765 12.3419 98.2137 12.6067C98.9048 12.8625 99.3767 13.1151 99.6141 13.243C100.323 13.6235 100.674 14.0741 100.85 14.2963C101.377 14.9691 101.547 15.648 101.632 15.9889C101.888 17.0087 101.742 18.0012 101.669 18.4974C101.27 21.4077 99.3645 22.3514 98.4147 22.8263C95.5591 24.2449 92.3596 24.245 90.7583 24.245C87.8115 24.245 86.2224 23.9649 85.4309 23.8279C83.0472 23.4108 81.9574 22.9724 81.4125 22.7563V17.2644L81.4033 17.2553Z" fill="#FFC828"/>
<path d="M119.238 11.115L121.746 1.36725H132.258L134.55 23.8826H126.839L125.966 14.1349H125.055L123.128 23.8826H114.434L112.507 14.1349H111.6L110.726 23.8826H103.015L105.307 1.36725H115.819L118.328 11.115H119.238Z" fill="#F26A31"/>
<path d="M137.461 16.135C138.079 16.4272 138.611 16.5094 138.879 16.552C139.68 16.6799 140.067 16.6799 140.261 16.6799C141.099 16.6799 141.388 16.6068 141.534 16.5703L134.188 1.36725H142.554L145.936 10.3874H146.846L150.082 1.36725H158.448L150.228 19.4441C149.102 21.8825 147.851 22.7897 147.227 23.2464C145.354 24.6102 143.245 24.6102 142.188 24.6102C141.717 24.6102 141.29 24.5858 141.08 24.5737C140.444 24.5371 139.997 24.4762 139.771 24.4458C139.099 24.3545 138.688 24.2692 138.481 24.2266C137.863 24.0987 137.595 23.977 137.461 23.9161V16.1319V16.135Z" fill="#6569B0"/>
<path d="M167.066 12.2079H166.122L162.81 23.8826H154.81L160.737 1.36725H172.451L178.378 23.8826H170.375L167.066 12.2079Z" fill="#86C555"/>
<path d="M189.253 17.3709C191.545 17.3709 192.212 17.0208 192.544 16.8443C193.545 16.3176 193.545 15.6144 193.545 15.2613C193.545 14.208 192.818 13.9035 192.455 13.7513C191.366 13.2977 190.029 13.2977 189.362 13.2977C188.781 13.2977 188.501 13.3099 188.361 13.316C187.944 13.3342 187.627 13.3586 187.469 13.3708V17.2248C188.05 17.2979 188.33 17.3222 188.47 17.3344C188.887 17.3709 189.131 17.3709 189.253 17.3709ZM179.831 1.36725H187.469V6.82258C188.05 6.74952 188.379 6.74948 188.54 6.74948H189.505C191.761 6.74948 193.058 7.02959 193.707 7.16658C195.652 7.58365 196.623 8.23816 197.107 8.56694C198.562 9.55023 199.119 10.6401 199.399 11.185C200.237 12.8228 200.237 14.4454 200.237 15.2582C200.237 19.368 198.443 20.9327 197.545 21.7151C194.854 24.0622 191.387 24.0622 189.652 24.0622C184.522 24.0622 181.396 23.6269 179.831 23.4077V1.36725Z" fill="#FFC828"/>
<path d="M221.479 9.37063H214.715V23.8826H207.04V9.37063H200.602V1.36725H221.479V9.37063Z" fill="#00C2F3"/>
<path d="M229.422 12.5545C229.422 13.1725 229.544 13.55 229.604 13.7357C229.787 14.2989 230.076 14.5912 230.222 14.7373C230.658 15.1726 231.133 15.3431 231.367 15.4283C232.076 15.684 232.78 15.684 233.13 15.684V9.42807C232.076 9.42807 231.602 9.59854 231.367 9.68378C230.658 9.9395 230.366 10.2287 230.222 10.3748C229.787 10.8102 229.665 11.1877 229.604 11.3764C229.422 11.9396 229.422 12.3536 229.422 12.5576V12.5545ZM244.515 12.3354C244.515 11.7904 244.394 11.4373 244.333 11.2638C244.15 10.7371 243.873 10.457 243.733 10.317C243.316 9.89995 242.841 9.74164 242.607 9.66249C241.897 9.42503 241.17 9.42502 240.807 9.42502V15.7175C242.625 15.7175 243.258 15.0995 243.572 14.789C244.518 13.8605 244.518 12.8437 244.518 12.3354H244.515ZM240.768 1.75045C242.841 1.96964 244.101 2.47802 244.731 2.73374C246.622 3.49785 247.605 4.38373 248.095 4.82515C249.569 6.15245 250.15 7.42495 250.442 8.0612C251.316 9.96995 251.316 11.6687 251.316 12.518C251.316 15.063 250.735 16.3142 250.442 16.9383C249.569 18.8105 248.589 19.6598 248.095 20.083C246.622 21.3555 245.362 21.8304 244.731 22.0648C242.841 22.7741 241.459 22.9203 240.768 22.9933V24.7042H233.13V22.9933C230.947 22.7741 229.675 22.2901 229.038 22.0465C227.13 21.3189 226.183 20.4696 225.711 20.0465C224.292 18.774 223.735 17.5258 223.455 16.8987C222.618 15.0265 222.618 13.3278 222.618 12.4784C222.618 9.93343 223.175 8.65788 223.455 8.02162C224.292 6.11287 225.248 5.23918 225.729 4.80386C227.166 3.49482 228.439 2.98641 229.075 2.73069C230.984 1.96658 232.414 1.82047 233.13 1.7474V0H240.768V1.7474V1.75045Z" fill="#F26A31"/>
<path d="M260.309 1.36377V10.3474H261.03L265.712 1.36377H273.241V23.8791H266.333V14.859H265.582L260.899 23.8791H253.371V1.36377H260.309Z" fill="#6569B0"/>
<path d="M285.908 12.2013H285.059L282.078 23.8791H274.875L280.212 1.36377H290.754L296.091 23.8791H288.888L285.908 12.2013Z" fill="#FFC828"/>
<path d="M305.878 17.3674C307.939 17.3674 308.542 17.0143 308.84 16.8408C309.741 16.3141 309.741 15.6109 309.741 15.2578C309.741 14.2045 309.087 13.9001 308.758 13.7478C307.775 13.2943 306.575 13.2942 305.976 13.2942C305.452 13.2942 305.202 13.3064 305.075 13.3125C304.697 13.3308 304.414 13.3551 304.274 13.3673V17.2213C304.798 17.2944 305.047 17.3187 305.175 17.3309C305.553 17.3674 305.769 17.3674 305.878 17.3674ZM297.4 1.36377H304.274V6.8191C304.798 6.74604 305.093 6.74604 305.239 6.74604H306.107C308.137 6.74604 309.303 7.02611 309.888 7.16311C311.638 7.58017 312.512 8.23468 312.947 8.56346C314.256 9.54676 314.758 10.6366 315.008 11.1815C315.76 12.8193 315.76 14.4419 315.76 15.2547C315.76 19.3645 314.147 20.9292 313.337 21.7116C310.914 24.0587 307.793 24.0588 306.234 24.0588C301.619 24.0588 298.803 23.6234 297.397 23.4042V1.36377H297.4Z" fill="#00C2F3"/>
<path d="M331.347 11.1115L333.605 1.36377H343.064L345.128 23.8791H338.187L337.402 14.1314H336.583L334.847 23.8791H327.024L325.288 14.1314H324.473L323.684 23.8791H316.746L318.807 1.36377H328.269L330.528 11.1115H331.347Z" fill="#86C555"/>
</svg>
